<svg xmlns="http://www.w3.org/2000/svg" width="256" height="256"><path fill="#1976D2" fill-opacity=".016" fill-rule="evenodd" d="M0 128.004v128.004l128.25-.254 128.25-.254.254-127.75L257.008 0H0zm.485.496c0 70.4.119 99.053.265 63.672.146-35.38.146-92.98 0-128C.604 29.153.485 58.1.485 128.5"/><path fill="#1976D2" fill-opacity=".127" fill-rule="evenodd" d="M45.832 71.355c-2.018.63-4.005 1.483-4.417 1.895-.412.412-1.777.75-3.035.75-2.873 0-7.127 1.898-7.721 3.445-.291.76 1.539.501 5.195-.737 7.682-2.599 8.598-2.751 16.858-2.787C61.014 73.884 64 75.074 64 78.419c0 3.701-10.614 12.3-12.659 10.256-.279-.28.43-1.446 1.576-2.592 2.431-2.431 2.756-6.888.563-7.729-.836-.321-3.732.368-6.435 1.531-5.931 2.552-6.157 2.57-5.332.421.529-1.379-.079-1.251-3.282.692-2.162 1.312-4.831 2.862-5.931 3.444-1.1.582-2.225 1.321-2.5 1.643-.275.322-1.255.997-2.177 1.5-1.498.818-9.869 8.236-20.929 18.549-2.233 2.082-4.164 4.966-4.521 6.75C2.03 114.598 1.356 116 .875 116c-1.144 0-1.133 7.524.014 9.764.489.955 1.662 3.311 2.607 5.236.991 2.02 3.636 4.684 6.256 6.302 3.995 2.466 5.618 2.826 13.549 3 8.001.176 9.042.41 9.288 2.095.642 4.389 2.318 4.894 15.661 4.718 7.959-.105 8.75-.291 8.75-2.058 0-3.623-3.75-5.057-13.223-5.057-8.387 0-11.333-1.083-6.527-2.4 4.846-1.327 13.58-11.709 16.489-19.6l2.028-5.5 5.313-.309c10.281-.598 9.92-1.121 9.92 14.36 0 14.277-.893 18.318-4.819 21.816-1.904 1.695-3.873 1.855-21.542 1.744-10.696-.067-20.154.149-21.018.481-1.401.537-1.412.912-.103 3.442.807 1.562 1.96 3.143 2.561 3.515.602.372 5.742.608 11.423.525 9.714-.143 10.426-.015 11.942 2.137 1.584 2.249 1.55 2.294-1.916 2.599-3.941.347-4.262 1.14-1.913 4.725 1.519 2.318 2.152 2.465 10.634 2.465 4.96 0 10.716-.508 12.789-1.13 6.342-1.9 13.097-7.784 16.444-14.323 2.971-5.803 3.023-6.172 3.347-23.591l.329-17.696 5.171-.615c2.844-.339 15.183-.325 27.421.029l22.25.645V129.1c0 8.68-.369 16.01-.819 16.288-.451.279-6.526.237-13.5-.093L117 144.696l-.015-14.098c-.009-7.754-.383-14.678-.833-15.386-.598-.943-3.474-1.211-10.735-1l-9.917.288-.5 19.867-.5 19.867-3.846 3.322c-2.116 1.828-3.552 3.8-3.191 4.383.777 1.259 54.319 1.389 61.849.151 5.483-.902 9.193-3.312 12.438-8.08 2.155-3.166 2.25-4.182 2.25-24.093 0-12.297-.436-21.937-1.067-23.602-1.591-4.2-4.851-7.305-10.433-9.938l-5-2.357-42.57-.01L62.36 94l-3.68 7.75c-2.024 4.263-3.68 8.316-3.68 9.008 0 1.009-.397 1.011-2.003.008-2.792-1.744-4.613-.377-9.777 7.339-4.91 7.334-7.122 8.61-6.751 3.89.134-1.71.759-3.623 1.388-4.252.629-.629 1.143-2.853 1.143-4.943 0-2.09.45-3.8 1-3.8s1.007.787 1.015 1.75c.013 1.496.157 1.532.985.25 1.372-2.122 1.23-5.733-.25-6.377-.687-.299-.013-.288 1.5.025 2.997.62 3.299-.075 1.775-4.083-.537-1.411-1.662-2.565-2.5-2.565-2.307 0-1.826-1.927.725-2.908 1.237-.476 5.175-1.407 8.75-2.068 11.242-2.082 17.123-5.635 18.507-11.181.991-3.971-.946-6.528-7.062-9.325-5.935-2.715-11.471-3.081-17.613-1.163m20.272 8.776c-.629 1.806-2.148 4.385-3.374 5.732l-2.23 2.45 3.208-1.847c3.61-2.079 6.199-6.959 4.561-8.597-.694-.694-1.387.031-2.165 2.262m153.893 17.342c-2.473 2.051-6.972 6.056-9.997 8.901-3.025 2.846-8.762 8.041-12.75 11.545-3.988 3.505-7.25 6.874-7.25 7.487 0 .613 7.992 9.098 17.76 18.854L225.52 162h15.24c8.382 0 15.24-.394 15.24-.875 0-.881-33.463-31.338-35.114-31.958-2.114-.796.051-3.506 14.113-17.667 8.193-8.25 14.582-15.308 14.199-15.683-.384-.376-6.099-.996-12.701-1.378l-12.003-.693zm-51.33-1.806c-.367.366-.667 13.251-.667 28.631v27.965l-4.537 4.537c-2.495 2.495-4.116 4.798-3.601 5.118.514.32 7.001.446 14.415.279l13.479-.302.736-32.359c.404-17.798.432-32.849.062-33.448-.73-1.182-18.745-1.564-19.887-.421m-138.42 14.535c-.836 1.008-.18 1.689 2.898 3.003l3.979 1.699-.312-2.702c-.238-2.061-.926-2.773-2.898-3.003-1.422-.165-3.072.286-3.667 1.003m56.098 60.341c-.326.849-.322 1.813.007 2.143.713.712 3.648-1.548 3.648-2.808 0-1.51-3.032-.957-3.655.665M168.5 170c-.729 1.18.217 3 1.559 3 .518 0 .941-.9.941-2 0-2.109-1.455-2.691-2.5-1m-96.005 1.008c-.343.555.395 1.386 1.64 1.846 1.977.732 2.236 1.459 2.044 5.742-.12 2.697.19 5.524.689 6.282 1.733 2.63 3.132-.021 3.132-5.937 0-4.614.335-5.941 1.5-5.941.825 0 1.5-.675 1.5-1.5 0-1.131-1.216-1.5-4.941-1.5-2.718 0-5.221.454-5.564 1.008m59.172-.341c-1.136 1.136-.747 14.165.445 14.902 1.583.979 2.672-1.249 2.092-4.282-.646-3.378 1.135-2.298 2.787 1.692 1.68 4.054 3.622 3.806 5.702-.729l1.719-3.75.355 3.75c.342 3.626 2.303 5.064 3.738 2.742.387-.627 1.18-.45 2.097.468 1.627 1.626 7.342 1.052 8.633-.867 1.242-1.847.846-6.033-.792-8.37-1.467-2.096-6.233-3.1-7.707-1.625-1.265 1.264.496 3.162 2.579 2.78 1.229-.225 1.529-.119.685.241-.825.353-2.278 1.32-3.229 2.148-2.063 1.796-2.543.948-2.986-5.267-.381-5.35-2.689-5.256-5.285.214-1.1 2.317-2.326 4.23-2.725 4.25-.399.02-1.648-1.989-2.775-4.464-1.899-4.169-3.702-5.465-5.333-3.833m-48.012 5.162c-4.359 4.816-.06 12.416 5.77 10.199 3.219-1.223 2.53-2.981-1.234-3.146-2.666-.118-2.663-.125.309-.757 2.127-.452 3.095-1.307 3.327-2.936.678-4.771-4.841-7.041-8.172-3.36m9.833-.809c-.693 1.12 1.19 7.746 2.765 9.73 1.725 2.174 3.775 1.358 4.397-1.75.733-3.666 1.916-3.865 2.77-.465.78 3.11 4.855 4.923 7.673 3.415 2.069-1.107 1.593-3.427-.535-2.611-.682.262-1.874.074-2.649-.416-1.078-.683-.9-.896.759-.908 5.148-.036 6.743-2.572 3.94-6.265-1.675-2.207-5.396-2.252-7.779-.095-1.702 1.54-1.829 1.54-1.829 0 0-.91-.288-1.655-.64-1.655-1.168 0-3.295 3.47-3.372 5.5-.056 1.471-.6 1.008-2.056-1.75-2.127-4.028-2.473-4.302-3.444-2.73m21.97.047c-.363.588.285 1.314 1.441 1.617 2.652.693 2.634.894-.406 4.506-3.093 3.676-2.502 4.81 2.507 4.81 4.295 0 6.399-1.821 3.101-2.684-2.589-.677-2.59-.821-.038-4.405 1.135-1.593 1.783-3.35 1.441-3.904-.829-1.341-7.209-1.293-8.046.06M161 179.935c0 4.724.332 6.065 1.5 6.065 1.081 0 1.5-1.107 1.5-3.965 0-2.941.516-4.241 2-5.035 1.877-1.004 2-.76 2 3.965 0 3.881.355 5.035 1.55 5.035 1.253 0 1.492-1.087 1.25-5.671l-.3-5.671-4.75-.395-4.75-.394zm12.2-4.735c-1.96 1.96-1.379 4.226 1.55 6.042 2.564 1.59 2.602 1.707.559 1.731-2.783.034-3.697 1.46-1.894 2.957 1.504 1.248 6.585.447 6.585-1.038 0-.491.675-.892 1.5-.892s1.5.401 1.5.892c0 1.485 5.081 2.286 6.585 1.038 1.728-1.435.92-2.93-1.585-2.93-1.035 0-2.163-.454-2.506-1.009-1.064-1.722.501-4.849 2.593-5.178 3.237-.509 2.195-2.313-1.337-2.313-2.644 0-3.543.586-4.82 3.14l-1.569 3.141-2.431-1.868-2.43-1.869 2.25-.022c1.323-.013 2.25-.64 2.25-1.522 0-1.837-5.041-2.059-6.8-.3m19.235 1.259c-2.243 3.424-1.072 8.348 2.29 9.626 3.498 1.331 6.021.307 7.82-3.173 1.376-2.659 1.739-2.825 3.739-1.701l2.216 1.245-2.25.342c-2.719.412-2.978 2.836-.391 3.657 2.439.774 4.96-.249 6.166-2.502.76-1.419.429-2.237-1.528-3.776-2.856-2.247-3.148-3.177-.997-3.177.825 0 1.5-.675 1.5-1.5 0-2.024-4.68-1.963-6.732.089-1.452 1.452-1.666 1.452-2.478 0-1.464-2.616-7.435-2.061-9.355.87m-84.622 1.224c.721.289 1.584.253 1.916-.079.332-.332-.258-.568-1.312-.525-1.165.048-1.402.285-.604.604m87.854-.016c-.367.366-.667 1.716-.667 3 0 2.681 3.403 3.331 4.362.833 1.163-3.03-1.616-5.913-3.695-3.833M153.5 182c-.34.55-.141 1 .441 1s1.059-.45 1.059-1-.198-1-.441-1-.719.45-1.059 1"/><path fill="#1976D2" fill-opacity=".379" fill-rule="evenodd" d="M47 81.657c-2.475 1.298-5.498 2.197-6.717 1.997-2.575-.423-6.658 2.927-5.918 4.854.289.754-3.52 4.956-9.025 9.957-8.454 7.679-9.846 8.583-12.364 8.03-2.227-.489-3.074-.18-3.942 1.441C8.427 109.071 7.24 110 6.397 110c-1.087 0-1.344.592-.884 2.042.976 3.073-.455 9.958-2.07 9.958-.803 0-1.145.614-.817 1.468.31.808 1.044 1.37 1.63 1.25.587-.12 1.745 1.509 2.574 3.619 1.297 3.3 1.309 3.962.089 4.734-1.005.637-.451.903 1.902.914C12.103 134 15 135.849 15 137.929c0 1.63 2.983 1.278 3.638-.429.317-.825 1.621-1.5 2.898-1.5 1.276 0 2.996.675 3.821 1.5 1.828 1.828 3.28 1.911 4.343.25 1.144-1.788 6.914-3.664 9.328-3.032 1.585.414 2.302-.131 3.159-2.403.61-1.617 2.507-3.855 4.214-4.974 2.024-1.327 3.931-4.031 5.482-7.772 2.079-5.017 2.195-5.919.925-7.19-.799-.799-2.095-1.201-2.88-.894-1.51.591-5.157 5.731-8.116 11.441-1.501 2.896-2.399 3.485-5.794 3.801-3.738.349-5.595-.997-2.768-2.007.688-.245.934-.786.548-1.202-.92-.989-3.468 1.593-4 4.053-.229 1.061-.916 1.829-1.525 1.706-.61-.122-3.254-.423-5.875-.668-5.878-.549-8.428-3.331-8.075-8.811.267-4.145 3.907-8.798 6.883-8.798 2.959 0 3.218 2.75.59 6.26-2.083 2.782-2.257 3.57-1.227 5.574.66 1.284 1.752 2.859 2.428 3.5.959.911 1.079.674.548-1.084-.409-1.353-.254-2.25.388-2.25.587 0 1.067-.627 1.067-1.393s.75-1.681 1.667-2.033c1.26-.483 1.385-.922.514-1.793-.872-.872-.774-1.573.398-2.868 1.03-1.138 1.193-1.936.486-2.373-.586-.362-1.065-1.06-1.065-1.552 0-1.28 6.129-3.947 8.5-3.698 1.439.151 1.913-.303 1.688-1.619-.172-1.006.6-2.62 1.714-3.586 1.598-1.386 1.77-2.024.812-3.021-.962-1.002-.505-1.815 2.198-3.914 5.4-4.194 11.452-11.048 11.606-13.146.212-2.874-1.525-2.967-6.518-.347m16.278 13.546C61.75 97.101 56 108.768 56 109.971c0 .598 2.687 1.029 6.418 1.029 10.117 0 9.582-.865 9.582 15.485 0 15.652-1.082 20.212-5.48 23.094-2.086 1.367-5.577 1.597-22.495 1.487-21.552-.142-22.342.07-17.933 4.802 1.893 2.032 2.962 2.234 11.25 2.125 5.037-.067 9.873-.092 10.747-.057.875.035 2.095 1.173 2.713 2.528 1.172 2.574.326 3.891-1.962 3.05-.737-.271-1.944-.108-2.682.362-1.123.716-1.123 1.216 0 3.057 1.269 2.081 1.922 2.184 11.925 1.884 9.751-.292 10.968-.555 15.466-3.338C84.917 158.443 88 150.362 88 127.596c0-14.198.157-15.593 1.75-15.566.963.017 13.675-.095 28.25-.25l26.5-.28.273 17.788.273 17.788-13.369-.134c-7.353-.073-13.875-.447-14.495-.829-.732-.453-1.223-5.925-1.404-15.655L115.5 115.5l-9.75-.286-9.75-.286v38.066l-3.5 3.874c-1.925 2.131-3.5 4.157-3.5 4.503 0 .898 45.877.658 55.821-.292 9.124-.872 12.044-2.361 15.982-8.148 2.251-3.308 2.297-3.862 2-24.408-.351-24.351-.698-25.601-8.231-29.674-5.496-2.971-8.631-3.186-63.661-4.371-21.123-.454-26.803-.305-27.633.725m105.861 28.752.361 27.955-4.344 4.428c-2.388 2.436-3.963 4.639-3.5 4.897.464.258 6.356.255 13.094-.007l12.25-.475V96h-18.223zM207 110.247c-8.525 7.771-15.624 14.418-15.776 14.77-.152.352 7.678 8.592 17.4 18.311L226.301 161l14.099-.029 14.1-.028-5.541-5.222c-3.048-2.871-11.036-10.157-17.75-16.189C224.494 133.5 219 128.094 219 127.519c0-.575 6.525-7.558 14.5-15.519S248 97.183 248 96.763c0-.42-5.738-.737-12.75-.704l-12.75.058zM29.5 117c.34.55 1.716 1 3.059 1 1.343 0 2.441-.45 2.441-1s-1.377-1-3.059-1c-1.785 0-2.802.417-2.441 1m3.938 25.101c-.375.605.226 2.007 1.333 3.115 1.845 1.844 2.784 1.952 11.174 1.288 7.615-.602 9.107-.994 8.852-2.32-.169-.878-1.43-1.909-2.802-2.29-4.149-1.155-17.81-1.002-18.557.207m42.833 30.149c1.129.854 1.764 3.152 2.002 7.25l.349 6 .189-6.677c.153-5.42.518-6.762 1.939-7.134.963-.251-.024-.509-2.191-.573-3.356-.099-3.696.07-2.288 1.134M132 177.917c0 4.055.427 7.083 1 7.083.55 0 1-2.025 1-4.5s.45-4.5 1-4.5 1 .9 1 2 .419 2 .93 2c.512 0 1.075.977 1.25 2.172.416 2.823 2.82 3.651 2.82.97 0-1.113.45-2.302 1-2.642.55-.34.97-1.379.932-2.309-.051-1.284-.329-1.149-1.152.559-1.578 3.27-2.53 2.812-5.04-2.425-3.444-7.188-4.74-6.753-4.74 1.592m12.072-4.667c-.495 1.29-.481 2.655.032 3.2.493.522.896 2.66.896 4.75s.45 3.8 1 3.8c.571 0 1-3 1-7 0-7.068-1.256-9.106-2.928-4.75m-57.259 2.433c.721.289 1.584.253 1.916-.079.332-.332-.258-.568-1.312-.525-1.165.048-1.402.285-.604.604m20.937-.021c.688.278 1.813.278 2.5 0 .688-.277.125-.504-1.25-.504s-1.937.227-1.25.504m11.17.432c1.602.64 2.767.619 3.45-.064.707-.707-.052-1.01-2.42-.967-3.242.06-3.304.122-1.03 1.031m34.713-.448c1.726.374 2.143 1.215 2.187 4.408.046 3.332-.265 3.946-1.999 3.946-1.581 0-1.93-.474-1.516-2.057.342-1.309.111-1.915-.634-1.667-.644.215-1.171 1.253-1.171 2.307 0 1.499.831 1.985 3.807 2.231l3.808.314-.308-4.814c-.292-4.572-.458-4.822-3.307-4.973-1.769-.093-2.125.032-.867.305m8.094.623c-.268.698-.143 3.061.278 5.25l.765 3.981.115-3.679c.063-2.023.822-4.385 1.686-5.25 1.429-1.428 1.393-1.571-.393-1.571-1.08 0-2.183.571-2.451 1.269M169.3 180c0 3.025.187 4.262.416 2.75.229-1.512.229-3.988 0-5.5s-.416-.275-.416 2.75m4.748-3.558c-.964 1.162-.696 1.877 1.378 3.68 3.161 2.749 3.228 3.613.324 4.172-1.971.38-1.916.451.441.57 1.48.075 2.944-.273 3.253-.774.835-1.351-.466-4.09-1.944-4.09-2.409 0-2.587-3.028-.233-3.975 2.203-.886 2.205-.899.105-.962-1.17-.034-2.666.586-3.324 1.379m9.425.588c-2.744 3.032-1.003 7.406 3.045 7.649 1.833.111 2.221-.031 1.007-.366-4.773-1.32-4.875-7.694-.138-8.625l2.113-.416-2.095-.136c-1.152-.075-2.922.778-3.932 1.894m10.856-1.255c-1.875 1.193-2.706 6.066-1.318 7.738 1.483 1.787 6.118 1.958 7.789.287.66-.66 1.2-2.37 1.2-3.8 0-1.43-.54-3.14-1.2-3.8-1.341-1.341-4.685-1.561-6.471-.425m11.338-.108c-1.306 1.306-.636 3.871 1.333 5.101 2.63 1.642 2.534 2.99-.25 3.526-1.627.314-1.35.471 1 .57 2.61.109 3.25-.251 3.25-1.829 0-1.08-.9-2.446-2-3.035-2.467-1.32-2.605-3.695-.25-4.311 1.418-.37 1.355-.479-.333-.573-1.146-.064-2.384.184-2.75.551m-11.277 1.76c-1.202 3.131.055 6.067 2.729 6.377 2 .232 2.757-.22 3.199-1.912.319-1.218.137-3.043-.405-4.054-1.165-2.177-4.743-2.444-5.523-.411M83 179.941c0 1.682.45 3.059 1 3.059s1-1.098 1-2.441c0-1.343-.45-2.719-1-3.059-.583-.361-1 .656-1 2.441m7-1.382c0 .857.457 1.276 1.016.931.559-.346.758-1.047.441-1.559-.857-1.387-1.457-1.129-1.457.628m15.222 1.933c.207 2.973.729 4.031 2.048 4.148 1.428.126 1.457.062.151-.334-1.081-.328-1.47-1.269-1.171-2.834.246-1.288.053-2.934-.429-3.657-.559-.838-.776.135-.599 2.677m5.778-2.051c0 .857.45 1.559 1 1.559s1-.423 1-.941-.45-1.219-1-1.559c-.55-.34-1 .084-1 .941m-15 2.406c0 1.792 1.198 4.153 2.107 4.153 1.385 0 1.055-1.981-.607-3.643-.825-.825-1.5-1.055-1.5-.51m20 3.134c0 .56 1.425 1.019 3.167 1.019 3.641 0 3.509-.437-.417-1.378-1.633-.392-2.75-.246-2.75.359"/><path fill="#1976D2" fill-opacity=".405" fill-rule="evenodd" d="M47.75 84.171C44.279 86.969 42.794 90 44.894 90c1.689 0 7.262-5.949 6.934-7.401-.245-1.086-1.272-.69-4.078 1.572M38 86.927c0 1.431.642 2.073 2.073 2.073s1.97-.539 1.739-1.739C41.31 84.655 38 84.364 38 86.927m3 6.132c0 .582.45.781 1 .441s1-.816 1-1.059S42.55 92 42 92s-1 .477-1 1.059m22.245 3.187c-2.195 2.735-6.301 13.098-5.505 13.894 1.878 1.878 69.24.489 70.475-1.453.415-.653.761-3.29.77-5.859.014-4.408-.17-4.729-3.235-5.661-1.787-.543-16.356-1.255-32.374-1.581-22.731-.464-29.345-.319-30.131.66m-38.678 8.107c-4.047 4.939-4.277 5.653-1.817 5.633 1.057-.009 2.838-1.988 4.5-5 3.389-6.146 2.086-6.453-2.683-.633m9.512-2.77c.048 1.165.285 1.402.604.605.289-.722.253-1.585-.079-1.917-.332-.332-.568.258-.525 1.312M50 112.786c0 .668.498 1.214 1.107 1.214.641 0 .827.736.441 1.75-.536 1.408-.419 1.505.6.493 1.021-1.014.936-1.588-.441-2.964-1.068-1.069-1.707-1.253-1.707-.493m46.811 22.161-.311 18.947-3.446 3.553L89.608 161l21.446-.116c11.795-.064 20.659-.322 19.696-.573-1.355-.355-1.75-1.524-1.75-5.184 0-5.82-1.214-7.127-6.618-7.127-7.643 0-7.382.588-7.382-16.607V116H97.121zM34 142.878c0 2.26 2.937 3.053 9.16 2.472 4.549-.425 6.507-1.02 6.507-1.979 0-1.045-1.865-1.371-7.834-1.371-4.308 0-7.833.395-7.833.878m29.5 9.131c-1.1.478-10.212.608-20.25.289-18.821-.598-20.147-.338-16.554 3.255 1.437 1.438 3.202 1.623 11.598 1.219 9.025-.435 10.071-.296 11.804 1.564C53.06 161.515 52.578 164 49 164c-3.409 0-3.787.986-1.25 3.255 1.309 1.171 3.262 1.459 7.75 1.144 8.91-.626 12.626-1.387 11.969-2.45-.323-.522-.11-.949.472-.949.644 0 1.059-2.74 1.059-7 0-7.479-.591-8.123-5.5-5.991m69.579 21.574c.048 1.165.285 1.402.604.605.289-.722.253-1.585-.079-1.917-.332-.332-.568.258-.525 1.312"/></svg>